# xmcd
#
# Track frame offsets: 
#        150
#        1837
#        16002
#        37352
#        54060
#        76480
#        95112
#        106007
#        123980
#        134345
#        150497
#        167400
#        185667
#        208450
#        225862
#        236257
#        248990
#        272930
#        289490
#        299997
#        315280
#        333810
#
# Disc length: 4575 seconds
#
# Revision: 2
# Processed by: cddbd v1.5.2PL0 Copyright (c) Steve Scherf et al.
# Submitted via: ExactAudioCopy v0.95b4
#
DISCID=2f11dd16
DTITLE=Various Artist - Zensur!?
DYEAR=1995
DGENRE=Alternative
TTITLE0=Adolf Noise - Intro
TTITLE1=Die Ärzte - Ein Lied über Zensur
TTITLE2=Fishmob - Fick mein Gehirn
TTITLE3=Fettes Brot - Schocktherapie
TTITLE4=Die Fantastischen Vier - Schizophren
TTITLE5=Herbert Grönemeyer - Lächeln
TTITLE6=J.B.O. - Los Casos Basketos
TTITLE7=Dritte Wahl - Tobias
TTITLE8=Gautsch - Zensur macht das Leben leicht
TTITLE9=Lee Buddah - Zeitnehmer (feat. Dike)
TTITLE10=Lotte Ohm. - Eine Zensur findet nicht statt
TTITLE11=Skrupel - Bull Power
TTITLE12=Tab Two - Vraiment Pairs
TTITLE13=Die Sterne - Fickt das System
TTITLE14=Ton Steine Scherben - Verboten
TTITLE15=Cucumber Men - Du würdest so gern über den Dingen stehen
TTITLE16=Tocotronic - Racist Friend
TTITLE17=Blind Passengers - Cross The Nation
TTITLE18=Napalm Death - Bled Dry
TTITLE19=Maschinenraum - Blood
TTITLE20=Slime - Der Tod ist ein Meister aus Deutschland
TTITLE21=Äl Tiem - Die Gedanken sind frei
EXTD=
EXTT0=
EXTT1=
EXTT2=
EXTT3=
EXTT4=
EXTT5=
EXTT6=
EXTT7=
EXTT8=
EXTT9=
EXTT10=
EXTT11=
EXTT12=
EXTT13=
EXTT14=
EXTT15=
EXTT16=
EXTT17=
EXTT18=
EXTT19=
EXTT20=
EXTT21=
PLAYORDER=
